<?xml version="1.0" encoding="utf-8"?>
<!-- Generator: Adobe Illustrator 27.4.1, SVG Export Plug-In . SVG Version: 6.00 Build 0)  -->
<svg version="1.1" id="Layer_1" xmlns="http://www.w3.org/2000/svg" xmlns:xlink="http://www.w3.org/1999/xlink" x="0px" y="0px"
	 viewBox="0 0 416.2 658.5" style="enable-background:new 0 0 416.2 658.5;" xml:space="preserve">
<style type="text/css">
	.st0{fill:#E5E5E5;}
	.st1{fill:#CBCBCB;}
	.st2{fill:#9F616A;}
	.st3{fill:#2F2E41;}
	.st4{opacity:0.1;enable-background:new    ;}
	.st5{fill:#6C63FF;}
	.st6{fill:#FFB7B7;}
	.st7{fill:#3F3D56;}
	.st8{fill:#FFFFFF;}
	.st9{fill:none;}
</style>
<path class="st0" d="M-174.3,448.3c-0.5-0.5-0.7-0.9-0.8-1.1c-0.2-0.2-0.3-0.4-0.5-0.5c0,0,0,0,0,0c0,0-0.1,0-0.1-0.1
	c-0.7,3.4-1.5,6.9-2.3,10.3c0.9-1.7,1.7-3.3,2.6-5c0.1-0.3,0.3-0.7,0.4-1.2C-174.8,450-174.6,449.1-174.3,448.3z"/>
<path class="st1" d="M-186.4,610.6v0.3h-0.1c-0.1,0.2-0.1,0.4-0.2,0.6h0.9v-3.1C-185.9,609.2-186.1,609.9-186.4,610.6z"/>
<path class="st1" d="M460,401c-0.1-0.2-0.3-0.3-0.4-0.5c-1.6,0.5-3.3,1-5,1.5h5.5C460,401.7,460,401.4,460,401z"/>
<polygon class="st2" points="190.5,647.8 187.1,647.8 185.5,634.8 190.5,634.8 "/>
<path class="st3" d="M191.3,651h-10.8v-0.1c0-2.3,1.9-4.2,4.2-4.2h6.6V651z"/>
<polygon class="st2" points="233.7,641.4 230.8,643.1 222.8,632.9 227.1,630.3 "/>
<path class="st3" d="M226.9,649.3l-0.1-0.1c-1.2-2-0.5-4.6,1.4-5.8l5.7-3.4l2.2,3.7L226.9,649.3z"/>
<path class="st3" d="M191.4,645.1L191.4,645.1c-1.7,0-3.3-0.1-4.9-0.3c-0.6-0.1-1.3-0.1-2.1-0.2l0,0c-0.6-0.2-0.6-5.3-0.3-23
	c0.1-9.1,0.3-19.3,0.1-25.9l0-0.1l0,0c5.9-5.2,14-7.2,21.6-5.5l0.1,0l0,0.1c3.3,5.6,8.3,13.6,13.1,21.4c11,17.8,14.2,23.1,13.9,23.5
	l0,0c-0.8,0.4-1.3,0.7-1.8,0.9c-1.9,1-3.9,1.9-5.9,2.6l-0.1,0l-0.1-0.1c-11.2-12.3-20.5-26-26.3-38.7c-0.7,4.3-1.5,10-2.4,16
	C193.8,633.1,192.1,644.4,191.4,645.1L191.4,645.1z"/>
<path class="st1" d="M194.4,597.1c6.7,0,13.3,1.1,19.6,3.3c0.2-10.6-3.3-20.9-10-29.1l0-0.1l0-0.1c1.8-5.1,3.6-10.3,5.2-15.6l0-0.1
	c-1.1-4.1-3.6-8.1-7.5-12.5c-0.9-0.9-2.3-1-3.3-0.2c-6.9,6.3-10.5,15.5-9.8,24.8l0,0l0,0c-3,10.3-4.2,15.6-5.1,20.3
	c-0.7,3.4-1.3,6.4-2.6,10.6C185.3,597.6,189.8,597.1,194.4,597.1z"/>
<polygon class="st4" points="204.2,564.4 194.3,586 188.6,580.3 "/>
<circle class="st2" cx="200" cy="533.8" r="7.1"/>
<path class="st3" d="M191.4,529.8h11.2v-4.9c-2.5-1-4.9-1.8-6.3,0C193.6,524.9,191.4,527.1,191.4,529.8z"/>
<path class="st3" d="M203.3,524c6.7,0,8.6,8.4,8.6,13.1c0,2.6-1.2,3.6-3.1,3.9l-0.7-3.5l-1.6,3.7c-0.5,0-1.1,0-1.7,0l-0.5-1.1
	l-1.2,1.1c-4.7,0-8.5,0.7-8.5-4C194.7,532.4,196.3,524,203.3,524z"/>
<path class="st5" d="M375.3,319.1c18.2-34.4,30.3-74.7,30.3-121.1c0-109.4-88.6-198-198-198S7.2,88.7,9.6,198c4,186,201,275,201,275
	S320.5,422.8,375.3,319.1C375.3,319.1,375.3,319.1,375.3,319.1z"/>
<polygon class="st6" points="214.8,646.3 210.7,646.3 208.7,630.5 214.8,630.5 "/>
<path class="st3" d="M207.7,645.1h7.9l0,0v5l0,0h-12.9l0,0l0,0C202.7,647.4,205,645.1,207.7,645.1
	C207.7,645.1,207.7,645.1,207.7,645.1z"/>
<polygon class="st6" points="230.2,646.3 226.1,646.3 224.1,630.5 230.2,630.5 "/>
<path class="st3" d="M223.2,645.1h7.9l0,0v5l0,0h-12.9l0,0l0,0C218.2,647.4,220.4,645.1,223.2,645.1L223.2,645.1z"/>
<path class="st6" d="M229.7,599.1c-1.7-1.1-2.2-3.3-1.1-5c0.1-0.2,0.2-0.3,0.4-0.5l-2.7-38.4l7.8,0.8l0.2,37.6
	c1.4,1.5,1.3,3.7-0.1,5.1C232.9,599.8,231.1,600,229.7,599.1L229.7,599.1z"/>
<path class="st3" d="M214.6,638.3l-4.5-0.2c-0.8,0-1.4-0.7-1.4-1.5l-0.3-45.8c0-0.8,0.7-1.5,1.5-1.5c0.1,0,0.2,0,0.2,0l18.1,2.6
	c0.7,0.1,1.3,0.7,1.3,1.5l2.3,42.4c0,0.8-0.7,1.5-1.5,1.5c0,0,0,0,0,0h-4.9c-0.7,0-1.4-0.5-1.5-1.3c0,0-3.7-31.8-4.2-31.8
	c-0.5,0-3.5,32.7-3.5,32.7C216.1,637.7,215.4,638.3,214.6,638.3C214.6,638.3,214.6,638.3,214.6,638.3z"/>
<path class="st7" d="M228.1,568.1c-0.4-0.3-0.6-0.7-0.6-1.1l-0.6-10.4c-0.1-2.3,1.6-4.3,3.9-4.4c2-0.1,3.7,1.2,4.2,3.1l2.5,9.3
	c0.2,0.8-0.3,1.6-1.1,1.9l-7.1,1.9C228.9,568.5,228.4,568.4,228.1,568.1z"/>
<circle class="st6" cx="221.4" cy="535.3" r="8.2"/>
<path class="st3" d="M227.2,541.8c-1,1.1-2.7,1.1-3.8,0.1c-0.5-0.4-0.8-1-0.8-1.6c0-0.2,0-0.3,0-0.5c0.1-1,0.7-1.9,0.5-2.9
	c0-0.3-0.1-0.5-0.3-0.7c-1.2-1.6-4.1,0.7-5.3-0.8c-0.7-0.9,0.1-2.3-0.4-3.4c-0.7-1.3-2.8-0.7-4.2-1.4c-1.5-0.8-1.4-3.1-0.4-4.5
	c1.3-1.7,3.2-2.7,5.3-2.7c2.1,0,4.1,0.4,6,1.2c2.2,0.7,4.2,2.1,5.7,4c1.5,2.5,1.9,5.5,1,8.2C230.2,538.4,228.5,540.4,227.2,541.8z"
	/>
<path class="st7" d="M229.6,549c-0.1-0.1-0.3-0.2-0.4-0.3c-0.8-0.5-1.6-0.9-2.5-1.2v-2.2h-6.4v2c-4.3,1.2-7.5,4.8-8.1,9.3l-4.3,32.2
	c-0.1,0.4,0.1,0.8,0.3,1.1c0.3,0.3,0.6,0.5,1,0.6c3,0.4,6,1.4,8.6,2.9c1.9,1.1,4.1,1.6,6.3,1.6c1.7,0,3.5-0.3,5.1-0.9
	c0.6-0.2,1-0.7,1-1.3c0.2-3.5,1.1-21.3,3.7-32.2C234.9,556.2,233.2,551.7,229.6,549z"/>
<polygon class="st7" points="276.6,484 144.6,484 128.6,420 292.6,420 "/>
<rect x="149.1" y="593.5" class="st8" width="123" height="64.1"/>
<path class="st7" d="M273.1,658.5h-125v-66.1h125V658.5z M150.1,656.5h121v-62.1h-121V656.5z"/>
<polygon class="st7" points="235.8,491.5 185.4,491.5 179.6,482.5 241.6,482.5 "/>
<rect x="145.6" y="484" class="st7" width="2" height="98"/>
<rect x="273.6" y="484" class="st7" width="2" height="98"/>
<path class="st7" d="M230.6,418.9l-1.2-1.6c57.8-44.6,126.7-120.9,126.7-231.5c0.1-79.2-47.3-150.8-120.3-181.5l0.8-1.8
	c73.7,31.1,121.6,103.3,121.5,183.4C358.1,297.3,288.8,374.1,230.6,418.9z"/>
<path class="st7" d="M166.6,418.9l-1.2-1.6c57.8-44.6,126.7-120.9,126.7-231.5c0-78.7-46.7-149.8-118.9-180.9l0.8-1.8
	c73,31.5,120.2,103.3,120.2,182.8C294.1,297.3,224.8,374.1,166.6,418.9z"/>
<path class="st7" d="M248.5,418.9c-58.1-44.8-127.4-121.7-127.4-233.1c0-79.4,47.2-151.3,120.2-182.8l0.8,1.8
	c-72.2,31.2-119,102.3-119,180.9c0,110.6,68.9,186.9,126.7,231.5L248.5,418.9z"/>
<path class="st7" d="M184.5,418.9C126.4,374.1,57.1,297.3,57.1,185.8C57,105.5,105.3,33,179.5,2.1l0.8,1.8
	C106.8,34.5,59,106.3,59.1,185.8c0,110.6,68.9,186.9,126.7,231.5L184.5,418.9z"/>
<rect x="206.6" class="st7" width="2" height="420"/>
<line class="st9" x1="149.1" y1="616.3" x2="185.8" y2="579.6"/>
<rect x="141.5" y="597" transform="matrix(0.7071 -0.7071 0.7071 0.7071 -373.7838 293.5305)" class="st7" width="51.9" height="2"/>
<line class="st9" x1="149.1" y1="636.3" x2="203.6" y2="579"/>
<rect x="136.8" y="606.7" transform="matrix(0.6891 -0.7247 0.7247 0.6891 -385.5426 316.7551)" class="st7" width="79.1" height="2"/>
<rect x="133.6" y="579" class="st8" width="150" height="18"/>
<path class="st7" d="M284.6,598h-152v-20h152V598z M134.6,596h148v-16h-148V596z"/>
<path class="st2" d="M182.1,587.4c1.5-0.1,2.7-1.4,2.6-2.9c0-0.2,0-0.3-0.1-0.5l8.2-5.4l-4.7-2l-7,5.4c-1.5,0.5-2.3,2-1.8,3.5
	C179.7,586.7,180.8,587.5,182.1,587.4z"/>
<path class="st1" d="M190,583.5l-0.1-0.1c-1.9-1.4-4.1-2.9-6.2-4.3l-0.1-0.1l0.1-0.1c4.5-5.2,8.9-10.7,13.2-15.9l0,0l0,0l0,0l0,0
	l0,0l-0.1,0l-1.3-10.4c-1.3-2.2-1.3-5,0.1-7.2c1.7-2.4,4.9-3.1,7.4-1.7c1.2,0.8,2,2.2,2.1,3.6c0.2,1.3-0.3,2.6-1.2,3.6
	c0.5,5.1,0.7,10.1,0.6,15.2l0,0l0,0C200,572,194.9,577.8,190,583.5L190,583.5z"/>
<path class="st6" d="M191.6,551.4c0,0.2,0.1,0.4,0.1,0.5l14.4,8.3l3.5-2l3.7,4.9l-7.5,5.3l-16.4-13c-1.8,0.7-3.8-0.3-4.5-2.1
	c-0.7-1.8,0.3-3.8,2.1-4.5c1.8-0.7,3.8,0.3,4.5,2.1C191.5,551.2,191.5,551.3,191.6,551.4L191.6,551.4z"/>
<path class="st7" d="M206.6,559.6c0-0.5,0.1-0.9,0.4-1.2l7.3-7.3c1.6-1.6,4.3-1.6,5.9,0c1.4,1.4,1.6,3.6,0.5,5.2l-5.2,8
	c-0.5,0.7-1.4,0.9-2.1,0.4l-6.2-4C206.8,560.5,206.6,560.1,206.6,559.6z"/>
</svg>
