<?xml version="1.0" encoding="utf-8"?>
<!-- Generator: Adobe Illustrator 27.4.1, SVG Export Plug-In . SVG Version: 6.00 Build 0)  -->
<svg version="1.1" id="Layer_1" xmlns="http://www.w3.org/2000/svg" xmlns:xlink="http://www.w3.org/1999/xlink" x="0px" y="0px"
	 viewBox="0 0 529.3 549.6" style="enable-background:new 0 0 529.3 549.6;" xml:space="preserve">
<style type="text/css">
	.st0{fill:#FFB6B6;}
	.st1{fill:#E6E6E6;}
	.st2{fill:#6C63FF;}
	.st3{fill:#3F3D56;}
	.st4{fill:#2F2E41;}
	.st5{fill:#F2F2F2;}
	.st6{opacity:0.2;}
	.st7{fill:#FFFFFF;}
</style>
<path class="st0" d="M201.8,265.6c0,0,13.9,14.3,15.1,22.4l-12.1,6.9l-13.9-24.4l-7.3-32.6c-2.2-2.2-2.2-5.7,0-7.8
	c2.2-2.2,5.7-2.2,7.8,0c1.4,1.4,2,3.5,1.4,5.5L201.8,265.6z"/>
<path class="st0" d="M330.5,231.3c-0.7-3,1.1-6,4-6.7s6,1.1,6.7,4c0.5,2-0.1,4-1.6,5.4l-8.5,32.3l-14.8,23.9l-11.8-7.4
	c1.5-8,15.9-21.8,15.9-21.8L330.5,231.3z"/>
<path class="st1" d="M269.6,330.4c1.1-1.3,2.3-2.5,3.6-3.7c-1.5,0.3-3,0.6-4.5,0.8c-7,1.1-14.1,1.7-21.2,1.8c1,0.9,2,1.9,2.9,2.9
	c5.6-0.2,11.2-0.7,16.8-1.4C268,330.6,268.8,330.5,269.6,330.4z"/>
<path class="st2" d="M503.4,77.4c-3.5-1.6-7-3.1-10.3-4.5c-0.5-0.2-1-0.4-1.5-0.6l-0.1,0c-3-1.3-6-2.5-9-3.8
	c-2.1-0.9-4.2-1.7-6.3-2.5c-0.8-0.3-1.6-0.7-2.5-1c-1.3-0.5-2.7-1.1-4-1.6c-1.1-0.4-2.2-0.9-3.3-1.3c-1.3-0.5-2.5-1-3.8-1.4
	c-1.5-0.6-3-1.1-4.5-1.7c0,0,0,0,0,0c-1.1-0.4-2.3-0.8-3.4-1.2c-15.2-5.5-30.6-10.4-45.9-14.6c-0.5-0.2-1.1-0.3-1.7-0.4
	c-1-0.3-1.9-0.5-2.8-0.8c-1.7-0.5-3.4-0.9-5.1-1.3c-1.6-0.4-3.2-0.8-4.8-1.2c-1.4-0.4-2.8-0.7-4.2-1c-1.4-0.3-2.8-0.7-4.2-1
	c-4.2-1-8.3-1.9-12.5-2.8c0,0-0.1,0-0.1,0c-1-0.2-2-0.4-3-0.6c-15.2-3.1-30.6-5.6-45.9-7.4c-0.8-0.1-1.5-0.2-2.2-0.3h0
	c-0.1,0-0.3,0-0.4,0c-1.3-0.2-2.5-0.3-3.8-0.4c-1.7-0.2-3.3-0.4-5-0.5c-3.9-0.4-7.9-0.7-11.8-1c-1-0.1-2-0.1-3-0.2
	c-1.1-0.1-2.3-0.2-3.4-0.2c-1.2-0.1-2.3-0.1-3.5-0.2c-0.4,0-0.9-0.1-1.3-0.1c-0.5,0-1.1-0.1-1.6-0.1c-0.8,0-1.6-0.1-2.4-0.1
	c-15.2-0.7-30.7-0.8-45.9-0.2c-0.8,0-1.7,0.1-2.5,0.1h0c-0.6,0-1.2,0.1-1.8,0.1c-0.2,0-0.5,0-0.7,0c-1.5,0.1-3,0.2-4.5,0.2
	c-1.6,0.1-3.2,0.2-4.8,0.3c-1,0.1-2,0.1-3,0.2c-0.7,0.1-1.3,0.1-2,0.1c-4.2,0.3-8.4,0.7-12.5,1.1c-1.4,0.1-2.8,0.3-4.1,0.4
	c-0.8,0.1-1.5,0.2-2.3,0.2c-15.2,1.7-30.7,4.1-45.9,7.2c-1,0.2-2,0.4-3,0.6c0,0,0,0-0.1,0c-0.1,0-0.3,0.1-0.5,0.1
	c-1,0.2-2.1,0.4-3.1,0.7c-1.1,0.2-2.3,0.5-3.4,0.7c-1,0.2-1.9,0.4-2.9,0.6c-2.3,0.5-4.5,1-6.8,1.6c-4.6,1.1-9.2,2.3-13.8,3.5
	c-1,0.3-2.1,0.6-3.1,0.9c0,0,0,0,0,0c-0.5,0.1-1.1,0.3-1.6,0.4c-15.2,4.2-30.6,9.1-45.9,14.7c-1.1,0.4-2.2,0.8-3.4,1.2
	c0,0-0.1,0-0.1,0c-3,1.1-6.1,2.3-9.1,3.5c-1.1,0.4-2.2,0.9-3.4,1.3c-1.1,0.4-2.2,0.9-3.2,1.3c-1,0.4-1.9,0.8-2.8,1.1
	c-0.8,0.3-1.5,0.6-2.3,0.9c-2.6,1.1-5.2,2.2-7.8,3.3c-1.6,0.7-3.1,1.4-4.7,2.1c-0.5,0.2-1,0.4-1.5,0.7c-3.8,1.7-7.2,3.2-10.5,4.8
	c-7.2,3.3-11.8,10.5-11.8,18.4v35.3c0,11.2,9.1,20.2,20.2,20.2c1.9,0,3.8-0.3,5.7-0.8c1.5-0.4,3-0.9,4.5-1.3
	c1.2-0.4,2.5-0.7,3.8-1.1c1.4-0.4,2.7-0.8,4.1-1.2c3.1-0.9,6.3-1.7,9.4-2.6c1.5-0.4,2.9-0.8,4.4-1.2c2.3-0.6,4.6-1.2,6.9-1.8
	c0.6-0.2,1.3-0.3,1.9-0.5c10-2.5,20.1-4.9,30.2-7c1-0.2,2.1-0.4,3.1-0.6c4.2-0.9,8.4-1.7,12.6-2.5l3-0.6h0c1-0.2,2-0.4,2.9-0.5
	c2.7-0.5,5.5-1,8.3-1.5c1.6-0.3,3.2-0.5,4.8-0.8c0.2,0,0.3-0.1,0.5-0.1c2.8-0.5,5.5-0.9,8.3-1.3c1.9-0.3,3.8-0.6,5.7-0.9
	c1.6-0.2,3.2-0.5,4.8-0.7c15.3-2.1,30.7-3.9,45.8-5c1.3-0.1,2.6-0.2,3.9-0.3c5.1-0.4,10.2-0.7,15.3-1c6.3-0.3,12.7-0.6,19-0.8
	c15.2-0.5,30.6-0.5,45.8,0c6.3,0.2,12.7,0.5,19,0.8c5.1,0.3,10.2,0.6,15.3,1c1.3,0.1,2.6,0.2,3.9,0.3c15.1,1.2,30.5,2.9,45.8,5
	c0.7,0.1,1.5,0.2,2.2,0.3c0.3,0,0.5,0.1,0.8,0.1c1.1,0.2,2.2,0.3,3.3,0.5c4.2,0.6,8.3,1.3,12.5,2c1.1,0.2,2.1,0.4,3.2,0.5
	c2.3,0.4,4.6,0.8,6.8,1.2c1.3,0.2,2.6,0.5,3.9,0.7c0.8,0.1,1.7,0.3,2.5,0.5c1,0.2,2,0.4,3,0.6c1.7,0.3,3.3,0.6,5,1
	c1,0.2,2.1,0.4,3.1,0.6c11.2,2.2,22.5,4.8,33.7,7.5c1.2,0.3,2.3,0.6,3.5,0.9c0.2,0,0.3,0.1,0.5,0.1c1.2,0.3,2.4,0.6,3.6,0.9
	c1.7,0.4,3.5,0.9,5.2,1.4c1.5,0.4,2.9,0.8,4.4,1.2c4.5,1.2,9.1,2.5,13.6,3.8c2.8,0.8,5.5,1.6,8.2,2.4h0c1.1,0.3,2.2,0.5,3.3,0.7
	c0.8,0.1,1.6,0.1,2.4,0.1c11.2,0,20.2-9.1,20.2-20.2V95.9C515.4,87.9,510.7,80.7,503.4,77.4z"/>
<path class="st3" d="M71.3,58.8c-0.8-0.6-1.8-0.7-2.7-0.4c0,0-0.1,0-0.1,0c-3,1.1-6.1,2.3-9.1,3.5c-1.1,0.4-2.2,0.9-3.4,1.3
	c-1.1,0.4-2.2,0.9-3.2,1.3c-1,0.4-1.9,0.8-2.8,1.1c-0.8,0.3-1.5,0.6-2.3,0.9c-2.6,1.1-5.2,2.2-7.8,3.3c-1.6,0.7-3.1,1.4-4.7,2.1
	c-1.1,0.5-1.8,1.6-1.8,2.8v72.8c0,1,0.5,1.9,1.2,2.5c0.2,0.2,0.5,0.3,0.8,0.4c0.6,0.2,1.3,0.2,1.9,0l4.5-1.3
	c1.2-0.4,2.5-0.7,3.8-1.1c1.4-0.4,2.7-0.8,4.1-1.2c3.1-0.9,6.3-1.7,9.4-2.6c1.5-0.4,2.9-0.8,4.4-1.2c2.3-0.6,4.6-1.2,6.9-1.8
	c0.6-0.1,1.1-0.5,1.5-0.9l0,0c0.5-0.6,0.8-1.3,0.8-2.1V61.3C72.6,60.3,72.1,59.4,71.3,58.8z"/>
<path class="st3" d="M155.6,34.6c-0.7-0.6-1.6-0.8-2.5-0.6c0,0,0,0-0.1,0c-0.1,0-0.3,0.1-0.5,0.1c-1,0.2-2.1,0.4-3.1,0.7
	c-1.1,0.2-2.3,0.5-3.4,0.7c-1,0.2-1.9,0.4-2.9,0.6c-2.3,0.5-4.5,1-6.8,1.6c-4.6,1.1-9.2,2.3-13.8,3.5c-1,0.2-1.9,0.5-2.9,0.8
	c-0.1,0-0.2,0-0.2,0.1c0,0,0,0,0,0c-1.2,0.5-2,1.6-2,2.9v82.3c0,0.9,0.4,1.8,1.1,2.4c0.2,0.2,0.5,0.4,0.8,0.5
	c0.4,0.2,0.8,0.2,1.2,0.2c0.2,0,0.4,0,0.5,0h0c1-0.2,2-0.4,2.9-0.5c2.7-0.5,5.5-1,8.3-1.5c1.6-0.3,3.2-0.5,4.8-0.8
	c0.2,0,0.3-0.1,0.5-0.1c2.8-0.5,5.5-0.9,8.3-1.3c1.9-0.3,3.8-0.6,5.7-0.9c0.9-0.1,1.8-0.3,2.6-0.4c0.6-0.1,1.1-0.3,1.6-0.7
	c0.7-0.6,1-1.4,1-2.3V37C156.7,36,156.3,35.2,155.6,34.6z"/>
<path class="st3" d="M240,24.2c-0.6-0.5-1.3-0.8-2.1-0.9h-0.2c-0.6,0-1.2,0.1-1.7,0.1c-0.2,0-0.5,0-0.7,0c-1.5,0.1-3,0.2-4.5,0.2
	c-1.6,0.1-3.2,0.2-4.8,0.3c-1,0.1-2,0.1-3,0.2c-0.7,0.1-1.3,0.1-2,0.1c-4.2,0.3-8.4,0.7-12.5,1.1c-1.4,0.1-2.8,0.3-4.1,0.4
	c-1.6,0.2-2.7,1.5-2.7,3.1v87.2c0,0.8,0.4,1.7,1,2.2c0.2,0.2,0.4,0.3,0.6,0.5c0.4,0.2,1,0.4,1.5,0.4c0.1,0,0.1,0,0.2,0
	c0.4,0,0.8-0.1,1.2-0.1c5.1-0.4,10.2-0.7,15.3-1c5.5-0.3,11.1-0.6,16.6-0.7c0.6,0,1.2-0.2,1.7-0.5c0.8-0.6,1.3-1.5,1.3-2.5V26.4
	C240.9,25.5,240.6,24.7,240,24.2z"/>
<path class="st3" d="M322.4,26.3L322.4,26.3c-0.2,0-0.3,0-0.4,0c-1.3-0.2-2.5-0.3-3.8-0.4c-1.7-0.2-3.3-0.4-5-0.5
	c-3.9-0.4-7.9-0.7-11.8-1c-1-0.1-2-0.1-3-0.2c-1.1-0.1-2.3-0.2-3.4-0.2c-1.2-0.1-2.3-0.2-3.5-0.2c-0.4,0-0.9-0.1-1.3-0.1
	c-0.5,0-0.9-0.1-1.4-0.1c-0.1,0-0.2,0-0.3,0c-0.7,0-1.5,0.3-2,0.8c-0.6,0.6-1,1.4-1,2.2v87.7c0,1,0.5,1.9,1.3,2.5
	c0.5,0.3,1.1,0.5,1.7,0.5c5.5,0.2,11,0.4,16.6,0.7c5.1,0.3,10.2,0.6,15.3,1c0.4,0,0.8,0.1,1.2,0.1c0.1,0,0.2,0,0.2,0
	c0.5,0,1-0.1,1.5-0.4c0.2-0.1,0.4-0.3,0.6-0.5c0.6-0.6,1-1.4,1-2.2V29.3C325.1,27.8,323.9,26.5,322.4,26.3z"/>
<path class="st3" d="M407.2,42.8c-0.1,0-0.2-0.1-0.2-0.1c-0.9-0.2-1.7-0.5-2.6-0.7c-1.7-0.4-3.4-0.9-5.1-1.3
	c-1.6-0.4-3.2-0.8-4.8-1.2c-1.4-0.4-2.8-0.7-4.2-1c-1.4-0.3-2.8-0.7-4.2-1c-4.2-1-8.3-1.9-12.5-2.8c0,0-0.1,0-0.1,0
	c-0.9-0.2-1.8,0.1-2.5,0.6c-0.7,0.6-1.1,1.5-1.1,2.4v84.1c0,0.9,0.4,1.7,1.1,2.3c0.4,0.4,1,0.6,1.6,0.7c0.3,0,0.5,0.1,0.8,0.1
	c1.1,0.2,2.2,0.3,3.3,0.5c4.2,0.6,8.3,1.3,12.5,2c1.1,0.2,2.1,0.4,3.2,0.5c2.3,0.4,4.6,0.8,6.8,1.2c1.3,0.2,2.6,0.5,3.9,0.7
	c0.8,0.1,1.7,0.3,2.5,0.5c0.2,0,0.4,0,0.6,0c0.4,0,0.8-0.1,1.2-0.2c0.3-0.1,0.6-0.3,0.8-0.5c0.7-0.6,1.1-1.4,1.1-2.4V45.6
	C409.2,44.4,408.4,43.2,407.2,42.8z"/>
<path class="st3" d="M491.6,72.3L491.6,72.3c-3-1.3-6-2.6-9-3.8c-2.1-0.9-4.2-1.7-6.3-2.5c-0.8-0.3-1.6-0.7-2.5-1
	c-1.3-0.5-2.7-1.1-4-1.6c-1.1-0.4-2.2-0.9-3.3-1.3c-1.3-0.5-2.5-1-3.8-1.4c-1.5-0.6-3-1.1-4.5-1.7c0,0,0,0,0,0
	c-0.9-0.3-1.9-0.2-2.7,0.4c-0.8,0.6-1.3,1.5-1.3,2.5v76.5c0,0.6,0.2,1.3,0.6,1.8c0.1,0.1,0.1,0.2,0.2,0.3l0,0
	c0.4,0.4,0.9,0.7,1.5,0.9c0.6,0.1,1.1,0.3,1.7,0.4c1.7,0.4,3.5,0.9,5.2,1.4c1.5,0.4,2.9,0.8,4.4,1.2c4.5,1.2,9.1,2.5,13.6,3.8
	c2.8,0.8,5.5,1.6,8.2,2.4h0c0.3,0.1,0.6,0.1,0.8,0.1c0.3,0,0.7-0.1,1-0.2c0.3-0.1,0.6-0.2,0.8-0.4c0.8-0.6,1.2-1.5,1.2-2.5V75.1
	C493.4,73.9,492.7,72.8,491.6,72.3z"/>
<path class="st3" d="M41.7,149.2c13,8.8,26.6,16.7,40.3,24.3c14.7,8.2,29.5,16.1,44.1,24.3c14.7,8.2,29.4,16.7,43.5,26
	c13.7,8.9,26.7,18.9,38.8,29.8c11.4,10.6,21.8,22.4,30,35.8c1,1.6,1.9,3.2,2.8,4.8c0.9,1.7,3.5,0.2,2.6-1.5
	c-7.8-13.6-17.4-26-28.7-36.9c-11.8-11.4-24.6-21.6-38.1-30.8c-14-9.6-28.6-18.3-43.4-26.6c-14.7-8.3-29.7-16.3-44.5-24.5
	c-13.9-7.7-27.8-15.6-41.2-24.3c-1.6-1-3.1-2.1-4.7-3.1C41.6,145.5,40.1,148.1,41.7,149.2L41.7,149.2z"/>
<path class="st3" d="M92.3,114c6.2,14.1,13.9,27.4,22.9,39.9c9.2,12.8,19,25.1,29.4,36.9c10.4,12,21.2,23.7,31.7,35.7
	c10.4,11.8,20.6,23.8,29.9,36.5c9.2,12.4,17.2,25.6,23.9,39.5c0.8,1.7,1.6,3.5,2.3,5.2c0.8,1.8,3.4,0.2,2.6-1.5
	c-6.2-14.1-13.9-27.4-22.9-39.9c-9.2-12.8-19-25.1-29.4-36.9c-10.4-12-21.2-23.7-31.7-35.7c-10.4-11.8-20.6-23.8-29.9-36.5
	c-9.2-12.4-17.2-25.6-23.9-39.5c-0.8-1.7-1.6-3.5-2.3-5.2C94.2,110.7,91.6,112.3,92.3,114L92.3,114z"/>
<path class="st3" d="M459.1,131.9c-11.4,10.9-23.6,21.1-36.3,30.5c-13.2,9.9-26.8,19.4-40.2,28.9c-13.5,9.5-26.9,19.1-39.8,29.4
	c-12.5,9.7-24.2,20.3-35.1,31.8c-10.1,10.9-19.2,23-26,36.2c-0.8,1.6-1.6,3.2-2.4,4.8c-0.8,1.7,1.8,3.3,2.6,1.5
	c6.3-13.4,14.6-25.7,24.5-36.7c10.5-11.6,21.9-22.3,34.1-32.1c12.7-10.3,26-19.9,39.3-29.4c13.5-9.6,27.1-19,40.4-28.9
	c12.8-9.3,25.2-19.4,36.9-30.1c1.4-1.3,2.7-2.6,4.1-3.9C462.6,132.7,460.4,130.6,459.1,131.9L459.1,131.9z"/>
<path class="st3" d="M428.1,104.3c-6.2,14.1-13.9,27.4-22.9,39.9c-9.2,12.8-19,25.1-29.5,36.9c-10.4,12-21.2,23.7-31.7,35.7
	c-10.4,11.8-20.5,23.9-29.8,36.5c-9.2,12.4-17.2,25.6-23.9,39.5c-0.8,1.7-1.6,3.5-2.3,5.2c-0.8,1.8,1.8,3.3,2.6,1.5
	c6.2-14.1,13.9-27.4,22.9-39.9c9.2-12.8,19-25.1,29.5-36.9c10.4-12,21.2-23.7,31.7-35.7c10.4-11.8,20.5-23.9,29.8-36.5
	c9.2-12.4,17.2-25.6,23.9-39.5c0.8-1.7,1.6-3.5,2.3-5.2C431.5,104,428.9,102.5,428.1,104.3L428.1,104.3z"/>
<polygon class="st0" points="206.7,485.2 208.6,491.7 234.8,487.6 232,477.9 "/>
<path class="st4" d="M199.8,486.9l5.8,20.2l0.3-0.1c4.3-1.2,6.8-5.8,5.6-10.1l0,0l1.7-4.5l-4.8-6.1l-0.5-1.8L199.8,486.9z"/>
<polygon class="st0" points="319.2,517.4 325.8,515.9 323.2,489.5 313.4,491.7 "/>
<path class="st4" d="M318.6,524.9l20.5-4.6L339,520c-1-4.4-5.4-7.2-9.8-6.2l0,0l-4.4-2l-6.3,4.4l-1.8,0.4L318.6,524.9z"/>
<path class="st4" d="M298.8,376l30.2,123.8l-14.8,1.3l-16.3-41.4l-25.2-48.7l2.3,55.6L227.9,494l-11-15.1l37.5-20.2L238,385l4.4-9.1
	H298.8z"/>
<path class="st1" d="M238.4,386.8c-4.9-6.8,4.2-18.1,5.3-20.5l0,0c-2.7-0.9-4.4-3.6-4.1-6.4l0.5-4.1l0.5-4l-3.6-3.6l0-0.1l-2.1-18
	l-3-11.9c-2.3-9.2,0.6-18.9,7.4-25.4l6.9-1.1l8.4-8.1h13.5l4.6,4.4c8.7,1.5,10.2,1,17.6,10l-3.4,27.8l-0.8,3.8l0,5.2l2.1,2.4
	c1.6,1.7,2.2,4.1,1.8,6.4l-0.3,1.4l0,0c2.2,0.9,4.3,17.8,4.8,20.1l0.8,3.5c0.6,0.9,4.9,6.5,4.9,8.1c0,0.2-0.2,0.5-0.5,0.7
	c-2.9,2-28.3,7.2-35.4,4.3C256.8,378.8,238.4,386.8,238.4,386.8z"/>
<path class="st1" d="M211.2,304.4l6,7.3c4.5,5.5,11.1,9,18.2,9.7l0,0c4.5,0.4,8.8-1.7,11.1-5.5l0,0c3.2-5.3,1.8-12.1-3.3-15.7
	c-7.4-5.2-11.4-13.2-17.2-10.6l-1.2-3.1l-16.3-13.2L195,284.9L211.2,304.4z"/>
<path class="st1" d="M326.4,280.4l-13-12l-10.1,6.4l-1.4,3c-5.7-2.8-16.7,11.2-24.3,16.1c-5.2,3.4-6.9,10.1-3.9,15.5l0,0
	c2.2,3.9,6.4,6.2,10.9,5.9l0,0c7.1-0.4,13.8-3.7,18.5-9l6.2-7.1L326.4,280.4z"/>
<circle class="st0" cx="260.5" cy="264.8" r="15"/>
<path class="st4" d="M249.6,275.4c-0.1-0.1-0.3-0.2-0.4-0.4c0,0,0,0,0,0L249.6,275.4z"/>
<path class="st4" d="M274.6,259.1c-0.1,0-0.2-0.1-0.2-0.1c-1-0.8-2.2-1.2-3.5-1.2c-1.2,0.1-2.2,1-3.3,1.4c-2.5,0.7-5-1-7.5-1.2H260
	c-3.4-0.2-6.4,2.4-6.6,5.8c0,0,0,0,0,0c0,0.8,0.1,1.7,0,2.5c-0.1,0.8-0.5,1.6-1.3,2c-1.1,0.5-2.7-0.2-3.6,0.5
	c-0.8,0.7-0.5,2.1,0,3.1c0.6,0.8,0.9,1.8,0.8,2.9c0,0.1,0,0.2-0.1,0.2c-4.7-4.4-7.3-10.5-7.2-16.9c0-1.4,0.2-2.8,0.8-4
	c0.6-1.3,1.8-2.2,3.2-2.4c1.2-0.1,2.4,0.4,3.5,0c1.4-0.5,2-2,2.7-3.3c1.8-3.1,5.2-5,8.8-4.8c1.3,0.1,2.5,0.4,3.7,0.8l2.4,0.6
	c0.9,0.2,1.8,0.5,2.6,0.9c1.2,0.7,2.3,1.7,3,2.9c0.6,1,1.1,2,1.5,3.1c-1.3,0.1-2.6,0-4-0.1c1.5,0.9,3,1.9,4.5,2.8
	C275,256.2,274.9,257.7,274.6,259.1z"/>
<path class="st5" d="M193.5,673.9c-3.1-0.3-6.2-0.6-9.4-1c-1.3,3.5-3.3,6.5-5.9,9.1c9,2.3,18,4.3,27.2,5.9
	c-3.2-3.9-6.5-7.7-9.8-11.4C194.8,675.7,194.1,674.8,193.5,673.9z"/>
<g class="st6">
	<path d="M0,134.6c0.3-0.4,0.6-0.8,0.9-1.2l0-0.2L0,134.6z"/>
	<path d="M513.4,138.7c-3.4,8.1-11.8,13-20.5,12c-1.1-0.1-2.2-0.4-3.3-0.7c-11.7-3.5-23.4-6.7-35.1-9.6
		c-15.3-3.8-30.6-7.2-45.8-10.1c-12.8-2.4-25.5-4.6-38.3-6.4c-15.3-2.1-30.6-3.8-45.8-5.1c-12.8-1-25.5-1.7-38.3-2.1
		c-15.3-0.5-30.6-0.5-45.8,0c-12.8,0.4-25.5,1.1-38.3,2.1c-15.3,1.2-30.6,2.9-45.8,5.1c-12.8,1.8-25.5,3.9-38.3,6.4
		c-15.3,2.9-30.6,6.3-45.8,10.1c-11.7,2.9-23.4,6.1-35,9.6c-1.1,0.3-2.2,0.5-3.3,0.7c-10.8,1.3-20.6-6.5-21.9-17.3
		c-0.1-0.8-0.1-1.5-0.1-2.3v-9.2C34.3,101.4,66.2,92,97,88.8c36.6-3.8,73.8-0.6,110.1-6c29.7-4.4,59.1-14.6,88.9-11.1
		c26,3.1,49.6,16.4,75.2,21.7c32.1,6.7,66,0.5,97.8,8.5c12.5,3.1,24.7,8.6,33.6,17.8C507.7,125,511.5,131.5,513.4,138.7z"/>
</g>
<circle class="st2" cx="262.1" cy="328" r="19.2"/>
<path class="st7" d="M259.5,338c-0.7,0-1.3-0.3-1.7-0.9l-5.2-7c-0.7-0.9-0.5-2.3,0.4-3c0.9-0.7,2.3-0.5,3,0.4l3.4,4.6l8.8-13.2
	c0.7-1,2-1.3,3-0.6c1,0.7,1.3,2,0.6,3c0,0,0,0,0,0l-10.5,15.7C260.9,337.7,260.3,338,259.5,338L259.5,338z"/>
<path class="st1" d="M275.6,283.3c-0.7-2.1-3.5-2.5-5.7-2.5c-4.9,0-9.8,0.2-14.8,0.6l0.5-0.6c-1.3-0.6-2.7-0.7-4.1-0.5
	c-1.4,0.4-2.5,1.9-1.9,3.2c0.5,1,1.7,1.6,1.7,2.6c-0.2,1.8-3.6,1.2-4.1,2.9c-0.2,0.7,0.2,1.4,0.8,1.8c0.6,0.4,1.3,0.6,2,0.6
	c7.3,1.1,14.8,0.1,21.6-2.8c1.2-0.4,2.3-1.1,3.2-2C275.6,285.9,276,284.6,275.6,283.3z"/>
</svg>
